<?xml version="1.0" encoding="UTF-8"?>
<svg version="1.1" xmlns="http://www.w3.org/2000/svg" width="512" height="512">
<path d="M0 0 C1.22589844 0.3403125 2.45179688 0.680625 3.71484375 1.03125 C32.52136683 9.83076582 55.88743402 28.16475405 70.21313477 54.74560547 C80.30025537 74.24531353 82.32945867 94.14952546 82.125 115.8125 C82.1149448 117.68033371 82.10582347 119.5481727 82.09765625 121.41601562 C82.0758562 125.94414309 82.04146802 130.4720117 82 135 C82.66 134.67 83.32 134.34 84 134 C92.76811262 133.15252443 99.34944432 134.58924134 106.1875 140.1875 C115.61863427 149.04536924 118.24663369 160.00022325 118.9296875 172.63671875 C119.19742594 185.44354061 116.52607545 196.79535507 113 209 C114.06992187 209.11472656 115.13984375 209.22945312 116.2421875 209.34765625 C121.43905753 210.2498156 124.37160337 212.23496919 128 216 C131.74089508 221.4938749 133.72210801 226.35660632 133 233 C133.825 233.185625 134.65 233.37125 135.5 233.5625 C141.34907825 235.96479999 145.50367627 239.75551441 149 245 C150.79118812 249.84284194 149.95594796 255.41568658 149.6171875 260.4765625 C150.10337941 264.95151248 151.60775149 266.17907756 155 269 C159.38342377 274.03281989 160.2989189 279.27240526 160.22265625 285.765625 C160 288 160 288 158.6875 291.6875 C158.3471875 293.3271875 158.3471875 293.3271875 158 295 C159.9657587 297.77408038 159.9657587 297.77408038 161.6171875 299.40625 C165.73350742 304.15048313 166.37717472 309.96520447 166 316 C166.99257813 316.09023438 167.98515625 316.18046875 169.0078125 316.2734375 C173.39490479 316.90646691 176.96539879 318.60263011 180.875 320.625 C181.57681396 320.98327881 182.27862793 321.34155762 183.00170898 321.71069336 C191.19473215 326.00092367 201.72148866 332.44297732 206 341 C206.23005477 346.29125982 206.23005477 346.29125982 205.37109375 348.9375 C204.88360672 351.6469016 205.60043943 352.75700721 206.9375 355.125 C209 358.83050847 209 358.83050847 209 361 C209.886875 360.896875 210.77375 360.79375 211.6875 360.6875 C215 361 215 361 217.56396484 363.03979492 C220.35848442 366.43562073 221.40259213 369.46500148 222.2890625 373.67578125 C222.45314606 374.41774246 222.61722961 375.15970367 222.7862854 375.92414856 C224.33819164 383.57126853 224.53951348 391.11527423 224.41162109 398.89428711 C224.37483947 401.19755253 224.37060597 403.49920348 224.37109375 405.80273438 C224.33118844 413.98016048 223.81536911 421.80870048 222.42431641 429.88012695 C221.74296854 434.88987628 221.70193145 439.52410232 222.98046875 444.421875 C224.37327517 450.93887907 224.33592074 457.4539846 224.31567383 464.08447266 C224.31252547 466.23261909 224.33600865 468.37936761 224.36132812 470.52734375 C224.41916835 483.13850377 222.81985472 495.59591222 217 507 C214.58513057 509.41486943 213.87292211 509.2961925 210.5625 509.3125 C209.78003906 509.32925781 208.99757813 509.34601562 208.19140625 509.36328125 C206 509 206 509 204.21484375 507.73046875 C203 506 203 506 203 502 C143.6 502 84.2 502 23 502 C22.34 503.65 21.68 505.3 21 507 C19 509 19 509 15.5625 509.5 C11.56934185 509.4408825 9.27731306 508.12251281 5.93104076 506.01621819 C-0.02329342 502.67633933 -4.723776 502.14962337 -11.45915222 502.24050903 C-12.55885938 502.23129893 -13.65856653 502.22208883 -14.79159814 502.21259964 C-18.44774453 502.18915222 -22.10239176 502.20807625 -25.75854492 502.22705078 C-28.39072252 502.21887457 -31.02279214 502.20833124 -33.65493774 502.19483948 C-39.30683824 502.17055838 -44.95840763 502.16796454 -50.61034203 502.18042374 C-58.78184885 502.19840526 -66.95303348 502.18317785 -75.12451509 502.16004442 C-88.38454912 502.1233982 -101.64446329 502.11332344 -114.90454102 502.12011719 C-127.77958244 502.1266564 -140.65451688 502.120583 -153.52954102 502.09765625 C-154.72149781 502.09554027 -154.72149781 502.09554027 -155.93753453 502.09338154 C-159.92430497 502.08622671 -163.91107491 502.07882507 -167.89784467 502.07130075 C-200.93191281 502.00927368 -233.96587378 501.99043636 -267 502 C-267.12375 502.78375 -267.2475 503.5675 -267.375 504.375 C-268 507 -268 507 -270 509 C-272.05859375 509.30078125 -272.05859375 509.30078125 -274.4375 509.3125 C-275.21996094 509.32925781 -276.00242187 509.34601562 -276.80859375 509.36328125 C-279.55355973 508.90823341 -280.22647394 508.10107051 -282 506 C-282.78369141 504.1940918 -282.78369141 504.1940918 -283.3515625 502.19921875 C-283.56296875 501.46896484 -283.774375 500.73871094 -283.9921875 499.98632812 C-284.30542969 498.8484082 -284.30542969 498.8484082 -284.625 497.6875 C-284.8415625 496.94048828 -285.058125 496.19347656 -285.28125 495.42382812 C-287.79825786 486.5754579 -288.1863043 478.15787623 -288.18530273 468.99755859 C-288.18748014 466.77031069 -288.20564329 464.54356619 -288.22460938 462.31640625 C-288.25084237 455.38439834 -288.02684016 448.83520295 -286.4206543 442.05273438 C-285.81305341 439.08772667 -285.99774811 436.37083129 -286.3125 433.375 C-286.41175781 432.35148437 -286.51101563 431.32796875 -286.61328125 430.2734375 C-286.88827294 427.9457301 -287.18974973 425.62108524 -287.50927734 423.29907227 C-288.02251818 419.18278718 -288.19408004 415.08713025 -288.23828125 410.94140625 C-288.246353 410.19398666 -288.25442474 409.44656708 -288.26274109 408.67649841 C-288.27648165 407.10084275 -288.28724795 405.52515857 -288.29516602 403.94946289 C-288.30660566 402.37417562 -288.32692814 400.79892461 -288.35668945 399.22387695 C-288.79579462 375.87771009 -282.68182107 353.70341967 -266.328125 336.375 C-265.55984375 335.59125 -264.7915625 334.8075 -264 334 C-263.33484375 333.29875 -262.6696875 332.5975 -261.984375 331.875 C-247.56444514 317.78529754 -225.57784261 312.26947841 -206 311.75 C-198.10099848 311.92171742 -190.11498999 313.20053205 -182.37084961 314.70507812 C-177.27662342 315.32653506 -173.14007161 313.89106702 -168.35546875 312.25390625 C-167.01806389 311.81896095 -167.01806389 311.81896095 -165.65364075 311.37522888 C-162.82633544 310.45283186 -160.00690891 309.50872842 -157.1875 308.5625 C-154.34903856 307.62403654 -151.50914862 306.69016995 -148.6678009 305.76048279 C-146.90514333 305.18224479 -145.14438454 304.59817922 -143.38578796 304.00770569 C-142.59098526 303.74420822 -141.79618256 303.48071075 -140.97729492 303.20922852 C-140.2797258 302.97526871 -139.58215668 302.7413089 -138.8634491 302.5002594 C-137 302 -137 302 -134 302 C-133.76667969 301.20851563 -133.53335938 300.41703125 -133.29296875 299.6015625 C-131.32604254 294.12269252 -128.64316691 289.00031577 -126.01367188 283.8125 C-125.61341797 282.99523437 -125.21316406 282.17796875 -124.80078125 281.3359375 C-124.43122314 280.59907715 -124.06166504 279.8622168 -123.6809082 279.10302734 C-122.61131143 275.79951118 -123.5754264 273.87833912 -125.04394531 270.84033203 C-125.67961426 269.68573486 -125.67961426 269.68573486 -126.328125 268.5078125 C-126.79557129 267.64389893 -127.26301758 266.77998535 -127.74462891 265.88989258 C-128.24140137 264.97747803 -128.73817383 264.06506348 -129.25 263.125 C-132.69358906 256.76823771 -135.59240053 250.75361097 -137.625 243.8125 C-138.81948985 239.61860518 -138.81948985 239.61860518 -141.90625 236.91796875 C-144.13534374 236.45545918 -144.13534374 236.45545918 -146.47265625 236.32421875 C-154.50928337 235.29324495 -162.67661402 228.87719896 -168 223 C-181.05096594 205.78035391 -184.70300231 185.27307131 -182.10986328 164.15307617 C-180.7291221 154.80991724 -177.47998272 145.94348092 -170.32421875 139.48828125 C-163.34835687 134.4769819 -156.48462797 133.33301828 -148 134 C-147.34 134.33 -146.68 134.66 -146 135 C-146.02356567 133.32381592 -146.02356567 133.32381592 -146.04760742 131.61376953 C-146.10286137 127.3755648 -146.13668839 123.13739008 -146.16479492 118.89892578 C-146.17966831 117.08181363 -146.19997328 115.26473594 -146.22631836 113.44775391 C-146.44859283 97.69677508 -145.69408629 82.07760011 -139.8125 67.25 C-139.51206787 66.46761963 -139.21163574 65.68523926 -138.90209961 64.87915039 C-127.81883888 36.95572042 -106.26134571 16.81727957 -79 5 C-74.0522434 3.05586009 -69.11055553 1.43981595 -64 0 C-62.88496094 -0.32097656 -61.76992187 -0.64195313 -60.62109375 -0.97265625 C-42.04382724 -5.35697271 -18.35159604 -5.27369156 0 0 Z M104 227 C103.67 227.99 103.34 228.98 103 230 C101.140625 231.06640625 101.140625 231.06640625 99 232 C97.9275 232.639375 96.855 233.27875 95.75 233.9375 C92.16986458 235.86215926 89.15383799 236.14099922 85.12792969 236.38208008 C81.45793026 236.69324685 78.20666541 237.08880636 75 239 C71.26306228 243.73601278 69.74177775 249.8326158 67.90185547 255.49072266 C66.51160535 259.35888473 64.58354874 262.86829916 62.5625 266.4375 C59.31981337 272.18229728 57.37053868 275.74649948 58.98046875 282.3671875 C61.49497915 290.62787642 64.53174024 298.74993321 72.2366333 303.3293457 C78.66616811 306.45375871 85.40534534 308.60999288 92.25 310.625 C93.24687836 310.92017517 94.24375671 311.21535034 95.27084351 311.51947021 C98.17704819 312.35608193 101.08973253 313.14932896 104.015625 313.9140625 C105.34050682 314.26207916 105.34050682 314.26207916 106.69215393 314.61712646 C112.20924301 315.9319904 116.41966956 316.0286027 122 315 C131.41783685 313.60211956 140.46896844 312.71069381 150 313 C148.75023244 309.34683329 148.32901247 308.21934164 145 306 C142.43620582 305.43904017 139.87183088 305.05256767 137.27734375 304.66015625 C135 304 135 304 133 301 C132.83339221 295.75185473 132.83339221 295.75185473 134 293 C135.96852444 291.60006468 137.8176058 290.79264839 140.08984375 289.984375 C142.54353851 288.71989426 143.08170122 287.56439818 144 285 C143.79671574 282.22178177 143.45503025 280.5792563 141.7265625 278.37890625 C139.57038565 276.6568917 138.29248595 276.61048847 135.5625 276.5 C131.80129612 276.34726076 129.66560313 275.76187774 127 273 C126.609375 270.51953125 126.609375 270.51953125 126.75 267.8125 C126.78609375 266.91144531 126.8221875 266.01039063 126.859375 265.08203125 C126.90578125 264.39496094 126.9521875 263.70789063 127 263 C127.78375 262.731875 128.5675 262.46375 129.375 262.1875 C132.28114923 261.15185568 132.28114923 261.15185568 134 258 C134.58345476 255.04253508 134.58345476 255.04253508 134 252 C132.10847573 249.36942449 132.10847573 249.36942449 129 248 C126.91197286 248.05472652 124.98216906 248.37829704 122.9296875 248.7578125 C120.13721268 249.10828505 118.39406219 248.40827188 116 247 C114 244 114 244 114.25 240.5 C115 237 115 237 117 234 C117.07767129 230.45975858 117.07767129 230.45975858 116 227 C110.9410655 223.07932576 109.42117596 223.95058852 104 227 Z " fill="#020101" transform="translate(288,3)"/>
<path d="M0 0 C1.46566406 1.00546875 1.46566406 1.00546875 2.9609375 2.03125 C15.21086986 10.01697677 29.20111806 15.04078291 43.3359375 18.53125 C44.68365037 18.88259538 46.03130406 19.23416785 47.37890625 19.5859375 C90.02989522 30.46674439 139.14213904 25.95039675 178.3359375 5.53125 C180.3744436 4.22509609 182.39694854 2.89344936 184.3984375 1.53125 C188.91339149 -1.44527522 188.91339149 -1.44527522 192.7109375 -1.65625 C193.9071875 -1.264375 195.1034375 -0.8725 196.3359375 -0.46875 C197.30273438 -0.1903125 198.26953125 0.088125 199.265625 0.375 C206.39860164 2.45615083 213.38461095 4.91231335 220.3359375 7.53125 C215.65656142 12.34060875 215.65656142 12.34060875 213.0234375 13.90625 C210.96091025 15.55158696 210.96091025 15.55158696 210.8984375 19.03125 C211.09894911 22.38123653 211.09894911 22.38123653 212.3984375 24.46875 C215.70843724 26.28391115 217.5830667 26.12694378 221.3359375 25.53125 C223.93453092 23.97470998 226.30882947 22.22381945 228.734375 20.41015625 C243.91181776 9.44866981 264.50094967 7.31993139 282.6640625 10.02734375 C285.30871849 10.71170648 287.79021744 11.54235094 290.3359375 12.53125 C291.31691406 12.88316406 292.29789062 13.23507812 293.30859375 13.59765625 C302.07189424 16.95452104 309.6522789 21.33375931 315.8359375 28.46875 C317.94754808 30.73733882 318.89148656 31.4579385 321.98828125 31.96875 C324.47772986 31.96875 326.86767822 31.84412794 329.3359375 31.53125 C330.17442554 32.98662568 331.00657684 34.44565373 331.8359375 35.90625 C332.3 36.71835937 332.7640625 37.53046875 333.2421875 38.3671875 C334.3359375 40.53125 334.3359375 40.53125 334.3359375 42.53125 C335.2228125 42.428125 336.1096875 42.325 337.0234375 42.21875 C340.3359375 42.53125 340.3359375 42.53125 342.89990234 44.57104492 C345.69442192 47.96687073 346.73852963 50.99625148 347.625 55.20703125 C347.78908356 55.94899246 347.95316711 56.69095367 348.1222229 57.45539856 C349.67412914 65.10251853 349.87545098 72.64652423 349.74755859 80.42553711 C349.71077697 82.72880253 349.70654347 85.03045348 349.70703125 87.33398438 C349.66712594 95.51141048 349.15130661 103.33995048 347.76025391 111.41137695 C347.07890604 116.42112628 347.03786895 121.05535232 348.31640625 125.953125 C349.70921267 132.47012907 349.67185824 138.9852346 349.65161133 145.61572266 C349.64846297 147.76386909 349.67194615 149.91061761 349.69726562 152.05859375 C349.75510585 164.66975377 348.15579222 177.12716222 342.3359375 188.53125 C339.92106807 190.94611943 339.20885961 190.8274425 335.8984375 190.84375 C334.72474609 190.86888672 334.72474609 190.86888672 333.52734375 190.89453125 C331.3359375 190.53125 331.3359375 190.53125 329.55078125 189.26171875 C328.3359375 187.53125 328.3359375 187.53125 328.3359375 183.53125 C268.9359375 183.53125 209.5359375 183.53125 148.3359375 183.53125 C147.6759375 185.18125 147.0159375 186.83125 146.3359375 188.53125 C144.3359375 190.53125 144.3359375 190.53125 140.8984375 191.03125 C136.90527935 190.9721325 134.61325056 189.65376281 131.26697826 187.54746819 C125.31264408 184.20758933 120.6121615 183.68087337 113.87678528 183.77175903 C112.22722455 183.75794388 112.22722455 183.75794388 110.54433936 183.74384964 C106.88819297 183.72040222 103.23354574 183.73932625 99.57739258 183.75830078 C96.94521498 183.75012457 94.31314536 183.73958124 91.68099976 183.72608948 C86.02909926 183.70180838 80.37752987 183.69921454 74.72559547 183.71167374 C66.55408865 183.72965526 58.38290402 183.71442785 50.21142241 183.69129442 C36.95138838 183.6546482 23.69147421 183.64457344 10.43139648 183.65136719 C-2.44364494 183.6579064 -15.31857938 183.651833 -28.19360352 183.62890625 C-29.38556031 183.62679027 -29.38556031 183.62679027 -30.60159703 183.62463154 C-34.58836747 183.61747671 -38.57513741 183.61007507 -42.56190717 183.60255075 C-75.59597531 183.54052368 -108.62993628 183.52168636 -141.6640625 183.53125 C-142.31613069 181.61336779 -142.96491348 179.69436835 -143.61230469 177.77490234 C-144.15476837 176.17211929 -144.15476837 176.17211929 -144.70819092 174.53695679 C-150.68514257 155.74262866 -149.72549023 132.3166541 -141.6640625 114.53125 C-132.72206199 97.45844312 -117.28223323 86.33247763 -99.203125 80.39453125 C-76.99523167 74.97737405 -55.13002766 79.07420531 -35.6640625 90.53125 C-26.71813661 96.03320442 -19.68585029 103.81192951 -15.6640625 113.53125 C-15.6640625 114.52125 -15.6640625 115.51125 -15.6640625 116.53125 C-22.09868583 115.902058 -28.33155429 114.87865837 -34.6640625 113.59375 C-41.45551708 112.2582804 -48.22536094 111.08260608 -55.1015625 110.28125 C-55.78025391 110.20140869 -56.45894531 110.12156738 -57.15820312 110.03930664 C-64.24802734 109.08056919 -64.24802734 109.08056919 -71.0390625 110.59375 C-72.98956159 112.56347099 -72.98956159 112.56347099 -73.1015625 116.03125 C-72.97978116 119.41559726 -72.97978116 119.41559726 -71.37182617 121.20385742 C-68.39621733 123.51670735 -64.62061767 123.43747896 -60.9765625 123.84375 C-51.67865792 125.04366508 -42.44509309 126.5183884 -33.2265625 128.21875 C-32.55411499 128.3423288 -31.88166748 128.46590759 -31.18884277 128.5932312 C-19.4481437 130.77690891 -7.96142445 133.65701958 3.50366211 136.9909668 C9.99020645 138.83815229 15.5802402 140.1600119 22.3359375 139.53125 C24.91584551 136.95134199 24.65192588 135.02880539 24.796875 131.50390625 C24.47846172 129.43595018 24.47846172 129.43595018 22.9140625 127.92578125 C18.32514898 125.44359621 13.14597794 124.66775258 8.0703125 123.6015625 C1.70361619 122.10351631 1.70361619 122.10351631 -0.15234375 119.21484375 C-0.32121094 118.32925781 -0.49007812 117.44367188 -0.6640625 116.53125 C-1.06818359 115.16806641 -1.06818359 115.16806641 -1.48046875 113.77734375 C-1.84978516 112.38708984 -1.84978516 112.38708984 -2.2265625 110.96875 C-2.47535156 110.03933594 -2.72414062 109.10992187 -2.98046875 108.15234375 C-3.20605469 107.28738281 -3.43164062 106.42242187 -3.6640625 105.53125 C-3.89738281 104.89960938 -4.13070312 104.26796875 -4.37109375 103.6171875 C-4.8255302 100.3816 -3.76042271 97.8103551 -2.7890625 94.71875 C-0.4658229 87.26976151 1.41163334 79.37928443 0.3359375 71.53125 C-1.10421176 68.83986457 -1.10421176 68.83986457 -3.6640625 67.53125 C-6.70659758 66.94779524 -6.70659758 66.94779524 -9.6640625 67.53125 C-11.61586105 69.05248336 -12.52625047 70.03141661 -13.18823242 72.43237305 C-13.29035034 73.47711792 -13.29035034 73.47711792 -13.39453125 74.54296875 C-13.47509766 75.30029297 -13.55566406 76.05761719 -13.63867188 76.83789062 C-13.70892578 77.62357422 -13.77917969 78.40925781 -13.8515625 79.21875 C-13.9743457 80.41467773 -13.9743457 80.41467773 -14.09960938 81.63476562 C-14.29957095 83.599094 -14.48338504 85.56505412 -14.6640625 87.53125 C-18.21377545 85.96373657 -20.90997337 83.78142568 -23.9140625 81.34375 C-33.38993068 73.97495676 -45.03501977 69.32064876 -56.6640625 66.53125 C-57.4271875 66.32757813 -58.1903125 66.12390625 -58.9765625 65.9140625 C-80.77518381 60.94125201 -104.92285769 64.87092881 -124.1484375 75.9453125 C-132.33190927 81.10445775 -138.97117874 87.58685913 -145.6640625 94.53125 C-150.92516737 86.63959269 -148.49381721 71.17177187 -146.7890625 62.17578125 C-142.8435872 44.84969968 -134.20430136 29.60052214 -119.2265625 19.59375 C-102.21802733 9.65999014 -82.02746893 6.02667781 -62.71606445 10.96875 C-53.55973263 13.67515913 -44.41706796 17.58216534 -37.03125 23.71875 C-33.77835672 26.20941416 -31.6578994 26.0489696 -27.6640625 25.53125 C-25.58072917 24.61458333 -25.58072917 24.61458333 -24.6640625 22.53125 C-23.66172064 19.20530245 -23.66172064 19.20530245 -24.6640625 15.53125 C-27.40436017 12.79626299 -30.42794004 10.64371883 -33.6640625 8.53125 C-32.6640625 6.53125 -32.6640625 6.53125 -30.33496094 5.56982422 C-28.81950684 5.08280029 -28.81950684 5.08280029 -27.2734375 4.5859375 C-26.17128906 4.23144531 -25.06914062 3.87695312 -23.93359375 3.51171875 C-22.77214844 3.14691406 -21.61070312 2.78210938 -20.4140625 2.40625 C-19.26808594 2.03371094 -18.12210938 1.66117187 -16.94140625 1.27734375 C-4.72521193 -2.60510218 -4.72521193 -2.60510218 0 0 Z " fill="#7D8A95" transform="translate(162.6640625,321.46875)"/>
<path d="M0 0 C2.70930896 0.67979025 4.10309908 1.63562304 6.1484375 3.5390625 C6.69433594 5.80737305 6.69433594 5.80737305 6.7578125 8.42578125 C6.79003906 9.36357422 6.82226562 10.30136719 6.85546875 11.26757812 C6.86964844 12.24404297 6.88382813 13.22050781 6.8984375 14.2265625 C6.92808594 15.21462891 6.95773438 16.20269531 6.98828125 17.22070312 C7.05899242 19.66023846 7.11168015 22.09881775 7.1484375 24.5390625 C12.51043936 25.46300564 12.51043936 25.46300564 17.8203125 24.8984375 C21.24619574 24.36960989 22.63899924 25.8042034 25.3984375 27.7890625 C35.28696774 34.45652994 46.66963857 36.93852384 58.5234375 36.9765625 C59.37325195 36.98042969 60.22306641 36.98429687 61.09863281 36.98828125 C70.53033794 36.82153287 79.20934671 34.37044872 88.1484375 31.5390625 C88.43976563 32.20292969 88.73109375 32.86679688 89.03125 33.55078125 C92.57552203 41.18545527 96.17384465 45.45555601 104.0234375 48.8515625 C115.11689673 52.59996801 127.7452969 51.48731341 138.3359375 46.7890625 C144.75768533 43.37672199 147.65631087 38.09729048 150.1484375 31.5390625 C151.45167969 31.95478516 151.45167969 31.95478516 152.78125 32.37890625 C153.93367187 32.74113281 155.08609375 33.10335937 156.2734375 33.4765625 C157.41039062 33.83621094 158.54734375 34.19585937 159.71875 34.56640625 C176.30784105 39.27105736 195.38603009 37.58514812 210.5234375 29.2890625 C211.80347656 28.50789063 211.80347656 28.50789063 213.109375 27.7109375 C215.1484375 26.5390625 215.1484375 26.5390625 217.1484375 26.5390625 C217.22403093 31.21228714 217.27769997 35.88513665 217.31323242 40.55883789 C217.32808391 42.14028133 217.34837055 43.72168545 217.37475586 45.30297852 C217.62159387 60.50529629 216.24736376 74.93850144 210.4609375 89.1640625 C209.93765869 90.48579468 209.93765869 90.48579468 209.40380859 91.83422852 C205.04596357 102.59577711 199.77400397 112.50604756 193.1484375 122.0390625 C192.76961426 122.59070068 192.39079102 123.14233887 192.00048828 123.71069336 C186.21744219 131.7039057 179.47129372 136.40853342 170.2734375 139.7890625 C169.43941406 140.11390625 168.60539063 140.43875 167.74609375 140.7734375 C137.07694387 152.52915492 103.00100461 153.14786526 72.1484375 141.5390625 C71.44638184 141.27577148 70.74432617 141.01248047 70.02099609 140.74121094 C61.93912427 137.63629051 54.46308896 134.68334807 49.1484375 127.5390625 C48.59414062 126.82234375 48.03984375 126.105625 47.46875 125.3671875 C30.96757974 102.92559595 21.80612743 77.36962811 20.39453125 49.65625 C20.27175904 46.50805523 20.27175904 46.50805523 19.1484375 43.5390625 C17.71433382 43.28952245 16.27583678 43.06513608 14.8359375 42.8515625 C14.03542969 42.72394531 13.23492187 42.59632813 12.41015625 42.46484375 C10.12584114 42.33256464 10.12584114 42.33256464 8.52539062 43.68359375 C6.59768215 46.2812151 6.80658021 48.09043393 6.85546875 51.30078125 C6.86513672 52.41904297 6.87480469 53.53730469 6.88476562 54.68945312 C6.90990234 55.85669922 6.93503906 57.02394531 6.9609375 58.2265625 C6.97447266 59.40541016 6.98800781 60.58425781 7.00195312 61.79882812 C7.03734424 64.71269661 7.08671941 67.62565195 7.1484375 70.5390625 C0.76567128 69.2011901 -3.41900403 65.53127375 -7.0390625 60.2890625 C-15.81379113 46.13250032 -17.76574943 30.72925816 -15.38671875 14.3359375 C-13.19174174 5.86774217 -9.31240098 -0.359426 0 0 Z " fill="#E9AC9C" transform="translate(136.8515625,152.4609375)"/>
<path d="M0 0 C5.93906433 5.55115247 10.6120492 11.07547307 13.734375 18.62109375 C13.734375 19.61109375 13.734375 20.60109375 13.734375 21.62109375 C7.29975167 20.99190175 1.06688321 19.96850212 -5.265625 18.68359375 C-12.05707958 17.34812415 -18.82692344 16.17244983 -25.703125 15.37109375 C-26.72116211 15.25133179 -26.72116211 15.25133179 -27.75976562 15.12915039 C-34.84958984 14.17041294 -34.84958984 14.17041294 -41.640625 15.68359375 C-43.59112409 17.65331474 -43.59112409 17.65331474 -43.703125 21.12109375 C-43.58134366 24.50544101 -43.58134366 24.50544101 -41.97338867 26.29370117 C-38.99777983 28.6065511 -35.22218017 28.52732271 -31.578125 28.93359375 C-22.28022042 30.13350883 -13.04665559 31.60823215 -3.828125 33.30859375 C-3.15567749 33.43217255 -2.48322998 33.55575134 -1.79040527 33.68307495 C9.9502938 35.86675266 21.43701305 38.74686333 32.90209961 42.08081055 C39.37429883 43.92391096 44.99441842 45.34788459 51.734375 44.62109375 C52.24025146 44.11368652 52.74612793 43.6062793 53.26733398 43.08349609 C53.75145752 42.60090332 54.23558105 42.11831055 54.734375 41.62109375 C58.046875 41.80859375 58.046875 41.80859375 61.734375 42.62109375 C62.806875 42.80671875 63.879375 42.99234375 64.984375 43.18359375 C67.734375 44.62109375 67.734375 44.62109375 68.39331055 46.39282227 C68.571604 47.08819092 68.74989746 47.78355957 68.93359375 48.5 C70.20195249 52.10067129 70.53759534 52.50474111 74.05078125 54.58203125 C75.4558944 55.08311877 76.87260671 55.55236917 78.296875 55.99609375 C79.93272451 56.57038313 81.56811436 57.14598294 83.203125 57.72265625 C84.09128906 58.02461914 84.97945312 58.32658203 85.89453125 58.63769531 C91.07283144 60.43086873 96.18188058 62.40596154 101.296875 64.37109375 C102.39233643 64.79028076 103.48779785 65.20946777 104.61645508 65.64135742 C121.35028504 72.10385129 137.84050288 79.29031641 153.734375 87.62109375 C153.734375 87.95109375 153.734375 88.28109375 153.734375 88.62109375 C65.954375 88.62109375 -21.825625 88.62109375 -112.265625 88.62109375 C-119.69110438 66.34465562 -122.18635479 41.50855516 -112.265625 19.62109375 C-103.32362449 2.54828687 -87.88379573 -8.57767862 -69.8046875 -14.515625 C-46.02650818 -20.31582106 -19.18292268 -15.66039484 0 0 Z " fill="#E9AD9C" transform="translate(133.265625,416.37890625)"/>
<path d="M0 0 C12.47395 9.93783065 23.2843505 23.33535635 25.33203125 39.64453125 C26.68015303 53.93462216 27.16985911 68.15194936 23 82 C22.01 85.3 21.02 88.6 20 92 C-39.4 92 -98.8 92 -160 92 C-160.66 90.02 -161.32 88.04 -162 86 C-164.31462078 84.68744704 -164.31462078 84.68744704 -167 84 C-168.62332667 83.19033133 -170.23513023 82.3572344 -171.8359375 81.50390625 C-172.73570312 81.02759766 -173.63546875 80.55128906 -174.5625 80.06054688 C-176.42979331 79.06595384 -178.29698171 78.07116381 -180.1640625 77.07617188 C-185.0397072 74.49556279 -189.88838587 72.07703329 -195 70 C-195 69.34 -195 68.68 -195 68 C-168.82032243 58.21650831 -142.68216647 49.6902315 -115.56054688 42.89599609 C-112.42710271 42.10747853 -109.29857088 41.30305362 -106.171875 40.48828125 C-91.69043126 36.73534756 -77.33579247 34.0035566 -62.41772461 32.73364258 C-58.02808324 32.33527001 -54.10376034 31.74234304 -50 30 C-48.45836825 26.9167365 -48.70252465 24.39121901 -49 21 C-50.40130685 18.86424561 -50.40130685 18.86424561 -53 18 C-58.31287983 17.81216381 -63.23584713 18.19343612 -68.5 19.0234375 C-69.17998047 19.12967438 -69.85996094 19.23591125 -70.56054688 19.34536743 C-71.98613937 19.5694458 -73.41127055 19.79647775 -74.8359375 20.02636719 C-76.99368498 20.37398264 -79.15287379 20.71115129 -81.3125 21.046875 C-87.9596516 22.09381481 -94.48945139 23.27661949 -101 25 C-104 25.125 -104 25.125 -106 25 C-104.55385307 15.64160092 -98.19440336 7.84471921 -91 2 C-83.78287223 -3.04552082 -76.38236209 -7.26748197 -68 -10 C-67.17113281 -10.29777344 -66.34226562 -10.59554688 -65.48828125 -10.90234375 C-44.0844132 -17.52807751 -18.06993337 -12.93642957 0 0 Z " fill="#E9AC9C" transform="translate(471,413)"/>
<path d="M0 0 C16.64281605 13.82933609 28.44776376 33.80680092 31.00390625 55.49609375 C31.39562894 62.16622721 31.2523258 68.82326864 31.00390625 75.49609375 C29.96492187 75.14675781 28.9259375 74.79742187 27.85546875 74.4375 C26.44678871 73.97733119 25.0379244 73.51772623 23.62890625 73.05859375 C22.94957031 72.82849609 22.27023437 72.59839844 21.5703125 72.36132812 C11.51404211 69.1188858 1.35409341 69.36069363 -9.12109375 69.43359375 C-10.36375 69.43810547 -11.60640625 69.44261719 -12.88671875 69.44726562 C-15.92322877 69.45894451 -18.95963463 69.47532235 -21.99609375 69.49609375 C-15.85197221 61.08245311 -15.85197221 61.08245311 -12.18359375 57.62109375 C-9.331192 54.91351593 -8.11304616 53.59544645 -7.68359375 49.55859375 C-7.71612653 46.48277513 -7.71612653 46.48277513 -9.55859375 44.55859375 C-13.20728817 42.96813721 -15.14779394 43.45685746 -18.99609375 44.49609375 C-21.97940145 46.72025785 -24.45748946 49.34734491 -26.99609375 52.05859375 C-27.66898438 52.75017578 -28.341875 53.44175781 -29.03515625 54.15429688 C-32.31027775 57.546387 -35.47044309 61.01646541 -38.55078125 64.5859375 C-42.42317396 69.05741989 -46.63627852 73.13524978 -50.921875 77.20703125 C-56.08576286 82.24552669 -61.29549683 88.02305996 -61.99609375 95.49609375 C-65.29609375 95.49609375 -68.59609375 95.49609375 -71.99609375 95.49609375 C-72.39828125 93.63984375 -72.39828125 93.63984375 -72.80859375 91.74609375 C-75.21084678 84.59520101 -80.77975032 79.70298157 -85.99609375 74.49609375 C-86.54749023 73.94308594 -87.09888672 73.39007813 -87.66699219 72.8203125 C-89.91566634 70.56775463 -92.16745128 68.31852869 -94.43017578 66.08007812 C-97.88719515 62.65104662 -101.14850414 59.12396224 -104.3046875 55.4140625 C-110.87162868 47.20052024 -110.87162868 47.20052024 -119.93359375 43.24609375 C-122.92018542 43.26226412 -122.92018542 43.26226412 -124.87109375 44.62109375 C-126.65561624 47.5952979 -126.64455375 49.05925577 -125.99609375 52.49609375 C-123.93888445 55.42716187 -121.47546628 57.92099255 -118.99609375 60.49609375 C-117.67603301 61.98944431 -116.36315902 63.48918774 -115.05859375 64.99609375 C-114.47207031 65.66640625 -113.88554687 66.33671875 -113.28125 67.02734375 C-112.85714844 67.51203125 -112.43304688 67.99671875 -111.99609375 68.49609375 C-114.64719857 69.82164616 -116.57012948 69.55908926 -119.53515625 69.48828125 C-135.71150659 69.21742679 -149.80068629 69.56739379 -164.99609375 75.49609375 C-165.95874603 49.63818384 -160.1864027 28.29267535 -142.99609375 8.49609375 C-142.361875 7.76132812 -141.72765625 7.0265625 -141.07421875 6.26953125 C-130.79399356 -4.75754791 -117.73003567 -11.75533447 -103.99609375 -17.50390625 C-103.1659375 -17.85195313 -102.33578125 -18.2 -101.48046875 -18.55859375 C-99.33258962 -19.35380091 -97.22043575 -19.95603876 -94.99609375 -20.50390625 C-93.91199219 -20.77976562 -92.82789063 -21.055625 -91.7109375 -21.33984375 C-59.0710587 -28.57839266 -25.99284496 -20.91584346 0 0 Z " fill="#E9AD9C" transform="translate(322.99609375,38.50390625)"/>
<path d="M0 0 C4.49592036 3.62628411 6.12779892 7.15971961 7.2890625 12.67578125 C7.45314606 13.41774246 7.61722961 14.15970367 7.7862854 14.92414856 C9.33819164 22.57126853 9.53951348 30.11527423 9.41162109 37.89428711 C9.37483947 40.19755253 9.37060597 42.49920348 9.37109375 44.80273438 C9.33118844 52.98016048 8.81536911 60.80870048 7.42431641 68.88012695 C6.74296854 73.88987628 6.70193145 78.52410232 7.98046875 83.421875 C9.37327517 89.93887907 9.33592074 96.4539846 9.31567383 103.08447266 C9.31252547 105.23261909 9.33600865 107.37936761 9.36132812 109.52734375 C9.41916835 122.13850377 7.81985472 134.59591222 2 146 C-0.41486943 148.41486943 -1.12707789 148.2961925 -4.4375 148.3125 C-5.61119141 148.33763672 -5.61119141 148.33763672 -6.80859375 148.36328125 C-9.53074491 147.91201555 -10.39376317 147.219343 -12 145 C-12.54639449 139.62712088 -11.80166314 136.08733333 -9.80078125 131.15625 C-5.9872258 120.88755435 -6.72334618 109.76370928 -7 99 C-7.01804687 97.80503906 -7.03609375 96.61007812 -7.0546875 95.37890625 C-7.7229875 79.32005048 -14.97517767 65.03832572 -26.55859375 54.0625 C-34.18913768 47.61621649 -42.67563626 43.44343723 -52 40 C-52.94230469 39.64550781 -53.88460937 39.29101562 -54.85546875 38.92578125 C-74.48623981 33.14628716 -96.1085062 36.75302753 -113.83984375 46.1484375 C-123.37468951 51.73498496 -131.20903431 58.52398977 -135.703125 68.765625 C-136.13786133 69.74821289 -136.57259766 70.73080078 -137.02050781 71.74316406 C-137.34374023 72.48791992 -137.66697266 73.23267578 -138 74 C-137.02111816 73.79636841 -137.02111816 73.79636841 -136.02246094 73.58862305 C-124.69692492 71.24516932 -113.37303132 68.93270354 -101.9375 67.1875 C-100.75462402 67.00223755 -100.75462402 67.00223755 -99.54785156 66.81323242 C-86.9761808 64.97073917 -86.9761808 64.97073917 -82 67.5625 C-80 70 -80 70 -79.4375 73.5 C-80.094342 77.58701686 -80.8206099 78.47142465 -84 81 C-86.70703125 81.7578125 -86.70703125 81.7578125 -89.8125 82.125 C-90.97910156 82.27582031 -92.14570313 82.42664063 -93.34765625 82.58203125 C-94.55292969 82.71996094 -95.75820313 82.85789062 -97 83 C-117.28586294 85.37107489 -137.29755205 89.65278822 -157 95 C-157.86222168 95.23380371 -158.72444336 95.46760742 -159.61279297 95.70849609 C-173.23722531 99.45206861 -186.65865751 103.79219674 -200.0625 108.25 C-200.85293701 108.51225372 -201.64337402 108.77450745 -202.45776367 109.04470825 C-204.73490193 109.8019071 -207.01033732 110.56398967 -209.28515625 111.328125 C-209.96030777 111.55292038 -210.63545929 111.77771576 -211.33106995 112.00932312 C-214.55416482 113.09935518 -217.69064761 114.27974907 -220.79467773 115.66699219 C-224 117 -224 117 -227 117 C-227 117.66 -227 118.32 -227 119 C-225.77152344 119.36222656 -224.54304688 119.72445312 -223.27734375 120.09765625 C-217.01460643 122.18932464 -211.34782302 125.28986225 -205.5625 128.4375 C-204.47517578 129.01048828 -203.38785156 129.58347656 -202.26757812 130.17382812 C-201.23181641 130.73392578 -200.19605469 131.29402344 -199.12890625 131.87109375 C-198.19119385 132.37568115 -197.25348145 132.88026855 -196.28735352 133.40014648 C-193.82312671 135.12371124 -192.94555853 136.17369617 -192 139 C-192.18583859 142.03536365 -192.55948607 144.22262247 -194.0625 146.875 C-197.36711622 148.79380942 -200.37021449 148.72352508 -204 148 C-207.85141889 146.33257756 -211.38791041 144.12801972 -215 142 C-233.74521624 131.30469461 -253.75340316 123.11514329 -273.96875 115.64453125 C-274.70221146 115.3730426 -275.43567291 115.10155396 -276.19136047 114.82183838 C-279.73560788 113.51389771 -283.28486727 112.2230404 -286.84448242 110.95751953 C-288.12944092 110.49133879 -289.41435538 110.02503661 -290.69921875 109.55859375 C-291.82158936 109.15954834 -292.94395996 108.76050293 -294.1003418 108.34936523 C-297.15768648 106.92662009 -298.90450052 105.62849132 -301 103 C-301.5625 99.5 -301.5625 99.5 -301 96 C-298.875 93.5 -298.875 93.5 -296 92 C-291.66619888 92.42677348 -287.79687757 93.64459237 -283.7109375 95.109375 C-282.52113281 95.53476562 -281.33132813 95.96015625 -280.10546875 96.3984375 C-278.87441406 96.84445312 -277.64335937 97.29046875 -276.375 97.75 C-275.16714844 98.18054688 -273.95929688 98.61109375 -272.71484375 99.0546875 C-266.90065973 101.14503999 -261.22686661 103.33350782 -255.6015625 105.890625 C-248.63936632 108.80665854 -244.45236963 108.00410586 -237.453125 105.35546875 C-235.71645816 104.63833767 -233.98224077 103.91525724 -232.25 103.1875 C-207.13617805 93.02828125 -181.12234869 85.10803528 -155 78 C-154.80664062 77.18015625 -154.61328125 76.3603125 -154.4140625 75.515625 C-154.15367187 74.43796875 -153.89328125 73.3603125 -153.625 72.25 C-153.36976563 71.18265625 -153.11453125 70.1153125 -152.8515625 69.015625 C-152.12226074 66.43296006 -151.20966929 64.37010012 -150 62 C-150.11335335 59.88440801 -150.11335335 59.88440801 -150.75 57.75 C-150.94980469 56.96367187 -151.14960938 56.17734375 -151.35546875 55.3671875 C-151.56816406 54.58601563 -151.78085937 53.80484375 -152 53 C-156.24619897 36.67773161 -156.24619897 36.67773161 -155 29 C-152.9375 25.875 -152.9375 25.875 -150 24 C-146.59903758 24 -144.25852784 24.19201912 -141.36328125 26.05078125 C-139.21645191 29.12031661 -139.15838205 32.55415182 -138.8125 36.1875 C-138.73064453 36.93708984 -138.64878906 37.68667969 -138.56445312 38.45898438 C-138.36459216 40.30475918 -138.18073462 42.15225433 -138 44 C-137.55011719 43.64808594 -137.10023438 43.29617188 -136.63671875 42.93359375 C-113.17780432 24.92805422 -87.52238377 17.98114367 -58.1875 21.625 C-41.17219808 24.77679815 -26.32442794 32.98149758 -14 45 C-13.03320312 45.90878906 -13.03320312 45.90878906 -12.046875 46.8359375 C-10.64917069 48.17485986 -9.31570737 49.580421 -8 51 C-8 51.66 -8 52.32 -8 53 C-7.34 53 -6.68 53 -6 53 C-6.28904904 40.35370521 -6.74562683 28.05408231 -9.37890625 15.65625 C-11.07740422 5.65754496 -11.07740422 5.65754496 -8.375 1.5 C-5.23686002 -0.48198314 -3.65126535 -0.67064058 0 0 Z " fill="#020202" transform="translate(503,364)"/>
<path d="M0 0 C16.12872864 6.08735368 31.55532038 13.37885669 47 21 C47 21.33 47 21.66 47 22 C-40.78 22 -128.56 22 -219 22 C-223.5 8.5 -223.5 8.5 -224 2 C-222.85163949 1.99576806 -221.70327898 1.99153612 -220.52011967 1.98717594 C-192.62173691 1.88413779 -164.72338079 1.7754097 -136.82504368 1.66066074 C-134.14304678 1.64964918 -131.46104979 1.63865893 -128.77905273 1.62768555 C-127.77908556 1.62359309 -127.77908556 1.62359309 -126.75891703 1.61941796 C-115.95080327 1.57528825 -105.14267899 1.5346735 -94.33454681 1.49534739 C-83.25249444 1.45494674 -72.17046139 1.41071829 -61.0884375 1.36312145 C-54.86043819 1.33649486 -48.63244286 1.31164124 -42.40442085 1.29092598 C-36.54980011 1.27139816 -30.69521691 1.24726617 -24.84062958 1.21950912 C-22.68506741 1.21011819 -20.52949698 1.20245033 -18.37392235 1.19658089 C-15.44463889 1.18835426 -12.5154474 1.17408759 -9.5861969 1.15821838 C-8.72142827 1.15724028 -7.85665964 1.15626217 -6.9656859 1.15525442 C-3.17536068 1.49617504 -3.17536068 1.49617504 0 0 Z " fill="#D69A8B" transform="translate(240,483)"/>
<path d="M0 0 C10.39159818 9.50088976 14.97410965 22.28754034 15.8359375 36.140625 C16.36254171 48.52836203 16.61573828 59.99217783 13 72 C12.01 75.3 11.02 78.6 10 82 C-49.4 82 -108.8 82 -170 82 C-170.99 79.03 -170.99 79.03 -172 76 C-174.30433904 74.69206578 -174.30433904 74.69206578 -177 74 C-178.70511904 73.1548642 -180.39886444 72.2864887 -182.08203125 71.3984375 C-183.01337891 70.90859375 -183.94472656 70.41875 -184.90429688 69.9140625 C-186.34385742 69.15222656 -186.34385742 69.15222656 -187.8125 68.375 C-188.79154297 67.859375 -189.77058594 67.34375 -190.77929688 66.8125 C-193.18736525 65.5438591 -195.594213 64.27296034 -198 63 C-198 62.67 -198 62.34 -198 62 C-197.01417057 61.99761165 -196.02834114 61.99522329 -195.01263809 61.99276257 C-171.04374622 61.93401168 -147.07495523 61.85815629 -123.10617447 61.76428509 C-111.51512815 61.71928746 -99.92411283 61.67988197 -88.33300781 61.65356445 C-78.23217391 61.63061648 -68.13143778 61.59725441 -58.03068137 61.55129844 C-52.68061853 61.527323 -47.33065279 61.50862257 -41.98053741 61.50238609 C-36.94741409 61.49635476 -31.91453933 61.47642584 -26.88150787 61.44572449 C-25.03198978 61.43691287 -23.18243924 61.43322811 -21.332901 61.43499184 C-18.81167122 61.43663733 -16.29120575 61.42000785 -13.77008057 61.39872742 C-13.03466986 61.40357499 -12.29925915 61.40842257 -11.54156327 61.41341704 C-7.42642777 61.35591657 -4.93416386 60.98595848 -2 58 C-0.9240902 55.92672925 -0.9240902 55.92672925 -0.3125 53.625 C0.03361328 52.49964844 0.03361328 52.49964844 0.38671875 51.3515625 C2.23082462 44.28053235 2.1860946 37.39088855 2.18530273 30.12792969 C2.18747289 27.90279535 2.20560666 25.67817073 2.22460938 23.453125 C2.25514509 15.45545199 1.85878486 7.82058719 0 0 Z " fill="#D69A8B" transform="translate(481,423)"/>
<path d="M0 0 C1.11938965 -0.01393799 2.2387793 -0.02787598 3.39208984 -0.04223633 C14.49082494 0.02033525 26.61140488 1.25180434 35.1875 8.875 C40.1537555 14.55072057 38.75544737 23.23104379 38.375 30.375 C37.14206797 37.29195769 32.9952905 42.7709314 27.37109375 46.81640625 C15.37230679 54.00709253 0.99347866 55.36656857 -12.61328125 52.68359375 C-19.70201432 50.86382232 -25.34294259 48.48427983 -30.625 43.375 C-31.17671875 42.86195313 -31.7284375 42.34890625 -32.296875 41.8203125 C-39.23178545 34.64508337 -41.07168157 25.81272173 -41.05859375 16.1015625 C-40.42972301 12.14704197 -38.94379471 9.49775766 -35.890625 6.8984375 C-24.6682726 0.50430648 -12.60495622 0.10091555 0 0 Z " fill="#7C8994" transform="translate(315.625,121.625)"/>
<path d="M0 0 C3.76464559 3.59497142 4.51113036 6.05369383 4.63671875 11.13671875 C4.48493449 21.72367113 1.03692726 29.04510872 -6.33203125 36.60546875 C-15.77331716 45.03968416 -29.50289307 46.4924768 -41.7421875 46.046875 C-51.24268961 45.20720798 -60.54071871 42.23131826 -67.67578125 35.69921875 C-73.32923322 28.82662915 -74.86110304 23.63662465 -74.92578125 14.82421875 C-74.94640625 14.12941406 -74.96703125 13.43460938 -74.98828125 12.71875 C-75.02428696 7.93899216 -74.24334842 4.72805111 -71.67578125 0.69921875 C-57.9077004 -12.96712751 -14.77928689 -11.47203388 0 0 Z " fill="#7C8994" transform="translate(232.67578125,129.30078125)"/>
<path d="M0 0 C19.14220208 4.12730984 38.708102 10.64624107 55.89086914 20.08520508 C59.12504281 21.92104368 59.12504281 21.92104368 62.65649414 22.54614258 C65.14332017 21.47269249 67.41756803 20.34497454 69.78149414 19.04614258 C93.18605096 6.79059685 120.8506862 -2.5159082 147.46899414 -2.70385742 C148.59337891 -2.73479492 148.59337891 -2.73479492 149.74047852 -2.76635742 C155.10530614 -2.80471186 155.10530614 -2.80471186 157.64477539 -1.18823242 C158.85088158 0.87937819 159.0586174 2.15929573 159.03149414 4.54614258 C159.03922852 5.22676758 159.04696289 5.90739258 159.05493164 6.60864258 C158.52645102 9.17850912 157.70700674 9.91951282 155.65649414 11.54614258 C153.1706543 12.17456055 153.1706543 12.17456055 150.19555664 12.53833008 C148.54426758 12.75549683 148.54426758 12.75549683 146.85961914 12.97705078 C145.08844727 13.19687622 145.08844727 13.19687622 143.28149414 13.42114258 C115.58755699 17.21913675 90.1407112 25.114006 65.59228516 38.6875 C62.39078548 40.10756235 60.00360626 39.33535638 56.65649414 38.54614258 C54.11252291 37.28261807 51.72093375 35.9819716 49.28149414 34.54614258 C38.30757948 28.41836818 26.55298856 24.48918523 14.65649414 20.54614258 C13.93800293 20.30492676 13.21951172 20.06371094 12.47924805 19.81518555 C0.36851035 15.8120812 -12.49904277 13.79787457 -25.21850586 13.10864258 C-28.66887995 12.84768992 -30.40986607 12.51423863 -33.59350586 10.98364258 C-36.24590191 7.2892338 -35.91424658 5.04072573 -35.34350586 0.54614258 C-30.12829401 -7.65987177 -7.86330182 -1.53708564 0 0 Z " fill="#020202" transform="translate(194.343505859375,349.453857421875)"/>
<path d="M0 0 C0.86625 0.845625 1.7325 1.69125 2.625 2.5625 C26.49489334 22.92635267 65.1447541 25.91020774 94.90795898 23.5859375 C116.81058416 21.44158983 140.9691516 14.19237367 158 0 C160.64 5.28 163.28 10.56 166 16 C162.87242131 19.12757869 159.77572515 20.87991478 155.875 22.8125 C154.8228833 23.33589966 154.8228833 23.33589966 153.74951172 23.86987305 C146.07087807 27.59173793 138.12069338 30.41178734 130 33 C129.24944336 33.24967529 128.49888672 33.49935059 127.72558594 33.7565918 C87.57295239 46.60494862 38.76460971 41.99812586 1.38085938 22.75292969 C-6.7948293 18.4103414 -6.7948293 18.4103414 -8 16 C-7.37915039 14.30419922 -7.37915039 14.30419922 -6.34765625 12.3046875 C-5.98349609 11.58925781 -5.61933594 10.87382812 -5.24414062 10.13671875 C-4.85419922 9.39035156 -4.46425781 8.64398438 -4.0625 7.875 C-3.67642578 7.12089844 -3.29035156 6.36679687 -2.89257812 5.58984375 C-1.93547868 3.72290903 -0.96863894 1.86097372 0 0 Z " fill="#D39889" transform="translate(177,292)"/>
<path d="M0 0 C24.28451709 2.621624 47.60070022 12.21970411 70.25 20.875 C71.00541077 21.16366943 71.76082153 21.45233887 72.53912354 21.74975586 C74.69922932 22.57730859 76.8577988 23.40871081 79.015625 24.2421875 C79.66250275 24.49084564 80.30938049 24.73950378 80.9758606 24.99569702 C83.45234129 25.95776552 85.82345559 26.89736073 88.12402344 28.23486328 C91.77962244 29.72583768 95.89226472 27.78752077 99.50463867 26.60473633 C100.36711716 26.32386673 101.22959564 26.04299713 102.11820984 25.75361633 C103.04213028 25.44949326 103.96605072 25.14537018 104.91796875 24.83203125 C105.88922195 24.51473557 106.86047516 24.19743988 107.86116028 23.87052917 C110.97081986 22.85385197 114.07915128 21.83317702 117.1875 20.8125 C119.2284338 20.14493208 121.26944868 19.47761198 123.31054688 18.81054688 C133.28651294 15.54717356 143.25565853 12.26415358 153.20756531 8.92805481 C182.53300453 -0.89093726 182.53300453 -0.89093726 188 1 C187.41381836 4.34692383 187.41381836 4.34692383 186 8 C183.11547852 9.5222168 183.11547852 9.5222168 179.37890625 10.44921875 C178.36038574 10.71822243 178.36038574 10.71822243 177.32128906 10.99266052 C175.84774134 11.37954574 174.37071236 11.7533553 172.89089966 12.11553955 C168.89943412 13.09602433 164.93603719 14.18048781 160.96875 15.25390625 C160.14653458 15.47391296 159.32431915 15.69391968 158.47718811 15.92059326 C149.71362175 18.2914018 141.13683847 21.15037578 132.5625 24.125 C131.82875153 24.37771667 131.09500305 24.63043335 130.33901978 24.89080811 C120.73691548 28.20526034 111.20882382 31.67009052 101.94360352 35.85400391 C100.89644165 36.30718994 100.89644165 36.30718994 99.828125 36.76953125 C99.2496582 37.03354736 98.67119141 37.29756348 98.07519531 37.56958008 C92.64790917 38.69526307 87.36436896 36.57926475 82.359375 34.63671875 C81.75168274 34.4034639 81.14399048 34.17020905 80.5178833 33.92988586 C78.59252301 33.1892808 76.67121483 32.43878464 74.75 31.6875 C73.47813489 31.19526453 72.20600101 30.70372295 70.93359375 30.21289062 C70.30993423 29.97223877 69.68627472 29.73158691 69.04371643 29.48364258 C66.02962165 28.32117934 63.01527026 27.1594119 60 26 C58.9282251 25.58685547 57.8564502 25.17371094 56.75219727 24.74804688 C55.29124634 24.19793945 55.29124634 24.19793945 53.80078125 23.63671875 C52.95427002 23.31533936 52.10775879 22.99395996 51.2355957 22.6628418 C48.18614168 21.7586955 45.979596 21.93040144 43 23 C40.64046906 25.35953094 40.50858587 26.77895617 40 30 C39.505 28.02 39.505 28.02 39 26 C34.71 25.01 30.42 24.02 26 23 C25.9175 21.906875 25.835 20.81375 25.75 19.6875 C25.35183343 16.11305538 25.35183343 16.11305538 23.5546875 14.41796875 C18.99672293 11.88808933 13.80367517 11.13516549 8.734375 10.0703125 C2.36625212 8.57193065 2.36625212 8.57193065 0.4140625 5.5234375 C0 3 0 3 0 0 Z " fill="#5E6A73" transform="translate(162,435)"/>
<path d="M0 0 C0.7523996 -0.00139984 1.50479919 -0.00279968 2.27999878 -0.00424194 C16.85236055 0.01805211 33.66529685 0.80790998 45.5625 10.4375 C47.5625 13.4375 47.5625 13.4375 47.4375 16.9375 C46.5625 20.4375 46.5625 20.4375 44.875 22.375 C41.75623778 23.8079448 39.98494482 23.89821373 36.5625 23.4375 C34.47434249 22.5479449 32.50019561 21.52910579 30.5 20.45703125 C21.09802902 15.50962313 10.19210796 16.22825895 -0.125 16.1875 C-2.05375977 16.1565625 -2.05375977 16.1565625 -4.02148438 16.125 C-13.96095231 16.08482024 -23.97264884 16.73344444 -32.8125 21.6875 C-35.7752277 23.31606068 -36.6122221 23.4375 -40.25 23.4375 C-43.4375 22.4375 -43.4375 22.4375 -45.4375 20.8125 C-46.92547547 17.27855826 -46.48053938 15.08813783 -45.4375 11.4375 C-41.88975447 8.03838497 -38.35975801 6.41275194 -33.75 4.8125 C-32.61175781 4.40773437 -31.47351563 4.00296875 -30.30078125 3.5859375 C-20.26230789 0.46865149 -10.43495213 -0.00185201 0 0 Z " fill="#050303" transform="translate(255.4375,220.5625)"/>
<path d="M0 0 C2.70930896 0.67979025 4.10309908 1.63562304 6.1484375 3.5390625 C6.69433594 5.80737305 6.69433594 5.80737305 6.7578125 8.42578125 C6.79003906 9.36357422 6.82226562 10.30136719 6.85546875 11.26757812 C6.86964844 12.24404297 6.88382813 13.22050781 6.8984375 14.2265625 C6.92808594 15.21462891 6.95773438 16.20269531 6.98828125 17.22070312 C7.05899242 19.66023846 7.11168015 22.09881775 7.1484375 24.5390625 C9.1284375 25.1990625 11.1084375 25.8590625 13.1484375 26.5390625 C13.28345644 28.97840475 13.38247647 31.41030354 13.4609375 33.8515625 C13.50283203 34.54185547 13.54472656 35.23214844 13.58789062 35.94335938 C13.63671875 37.96484375 13.63671875 37.96484375 13.1484375 41.5390625 C10.69140625 43.45703125 10.69140625 43.45703125 8.1484375 44.5390625 C6.87538194 45.58777503 6.87538194 45.58777503 7.03491211 47.94750977 C7.04276733 49.51069946 7.04276733 49.51069946 7.05078125 51.10546875 C7.05561523 52.7925293 7.05561523 52.7925293 7.06054688 54.51367188 C7.06892578 55.69767578 7.07730469 56.88167969 7.0859375 58.1015625 C7.09044922 59.28943359 7.09496094 60.47730469 7.09960938 61.70117188 C7.11144075 64.64718476 7.12792463 67.59309931 7.1484375 70.5390625 C0.76567128 69.2011901 -3.41900403 65.53127375 -7.0390625 60.2890625 C-15.81379113 46.13250032 -17.76574943 30.72925816 -15.38671875 14.3359375 C-13.19174174 5.86774217 -9.31240098 -0.359426 0 0 Z " fill="#D29789" transform="translate(136.8515625,152.4609375)"/>
<path d="M0 0 C4.52855117 0.76116565 7.34092628 2.15405377 11 5 C14.5645459 10.53410856 13.66949467 17.68847267 12.41796875 23.87890625 C9.76031909 32.41008303 4.14543501 40.02140923 -3.75 44.4375 C-17.51174995 50.15350244 -32.98111291 51.21791189 -47.078125 46.2734375 C-53.10947509 43.64480096 -58.14941193 41.07045155 -61 35 C-60.35039307 35.01047363 -59.70078613 35.02094727 -59.03149414 35.03173828 C-56.04186999 35.07372962 -53.05230821 35.09946167 -50.0625 35.125 C-49.04091797 35.14175781 -48.01933594 35.15851563 -46.96679688 35.17578125 C-33.9173127 35.25916454 -20.68473177 32.32230937 -11 23 C-4.90799412 16.13559256 -2.22396748 8.81298914 0 0 Z " fill="#5E6A73" transform="translate(224,126)"/>
<path d="M0 0 C4.63103815 0.27241401 6.6804884 2.26503707 9.765625 5.4296875 C13.82430251 10.5929418 12.33231525 19.75985812 12 26 C10.76706797 32.91695769 6.6202905 38.3959314 0.99609375 42.44140625 C-11.00269321 49.63209253 -25.38152134 50.99156857 -38.98828125 48.30859375 C-48.08035796 45.97453754 -54.42805304 42.55465646 -60 35 C-59.30551758 35.01571045 -58.61103516 35.0314209 -57.89550781 35.04760742 C-54.68042491 35.11083134 -51.46547348 35.14926391 -48.25 35.1875 C-47.15816406 35.21263672 -46.06632812 35.23777344 -44.94140625 35.26367188 C-31.50833824 35.38290029 -20.37667585 32.41450074 -10.125 23.5 C-4.03730965 16.33801136 -0.96570673 9.27078459 0 0 Z " fill="#5D6A73" transform="translate(342,126)"/>
<path d="M0 0 C0.07559343 4.67322464 0.12926247 9.34607415 0.16479492 14.01977539 C0.17964641 15.60121883 0.19993305 17.18262295 0.22631836 18.76391602 C0.47315637 33.96623379 -0.90107374 48.39943894 -6.6875 62.625 C-7.03635254 63.50615479 -7.38520508 64.38730957 -7.74462891 65.29516602 C-14.0808906 80.9423466 -22.45625199 96.44654788 -35 108 C-35.66 108 -36.32 108 -37 108 C-35.7083012 104.72928973 -34.35491038 101.49755357 -32.93359375 98.28125 C-26.08772888 82.529262 -20.61989802 66.54027896 -16 50 C-15.77666992 49.21222168 -15.55333984 48.42444336 -15.32324219 47.61279297 C-11.65728577 34.12428726 -12.7154975 19.84287039 -13 6 C-11.21118264 4.99491199 -9.41885304 3.99607264 -7.625 3 C-6.62726563 2.443125 -5.62953125 1.88625 -4.6015625 1.3125 C-2 0 -2 0 0 0 Z " fill="#D4998A" transform="translate(354,179)"/>
<path d="M0 0 C3.73549362 1.40081011 4.97647698 3.91655394 6.75854492 7.3918457 C8.08174115 10.33883238 9.39181258 13.29080518 10.6875 16.25 C11.15091797 17.27029297 11.61433594 18.29058594 12.09179688 19.34179688 C16.42649201 29.21775178 16.42649201 29.21775178 15.5 34.9375 C9.58782553 40.04346886 4.07156151 40.2191985 -3.4453125 40.1640625 C-8.46932742 39.79143735 -12.85332261 38.58417739 -16.5 34.9375 C-16.35975391 27.19279912 -13.78046464 21.05279276 -10.625 14.0625 C-10.17769531 13.03125 -9.73039063 12 -9.26953125 10.9375 C-4.38057838 -0.10951446 -4.38057838 -0.10951446 0 0 Z " fill="#D39889" transform="translate(256.5,149.0625)"/>
<path d="M0 0 C0.99 0.495 0.99 0.495 2 1 C3.70702735 1.06996014 5.41668003 1.08440154 7.125 1.0625 C8.03507812 1.05347656 8.94515625 1.04445313 9.8828125 1.03515625 C10.93082031 1.01775391 10.93082031 1.01775391 12 1 C12.86916887 2.40751221 13.71985149 3.8264521 14.5625 5.25 C15.03816406 6.03890625 15.51382812 6.8278125 16.00390625 7.640625 C17 10 17 10 16.77734375 12.171875 C16 14 16 14 14 16 C13.67278403 21.46918128 14.32178605 26.13258088 15.5 31.5 C17.72693669 42.5710203 17.27671943 53.76235295 17 65 C15 65 15 65 13.44921875 63.4609375 C12.86785156 62.77257812 12.28648437 62.08421875 11.6875 61.375 C10.82705078 60.36566406 10.82705078 60.36566406 9.94921875 59.3359375 C9.30597656 58.56507813 8.66273438 57.79421875 8 57 C7.14269287 56.12545166 6.28538574 55.25090332 5.40209961 54.34985352 C2.47631868 50.81864259 2.39648037 47.51238941 2.6171875 43.06640625 C2.63137726 42.31141342 2.64556702 41.55642059 2.66018677 40.77854919 C2.70774888 38.37189073 2.78840518 35.96804613 2.875 33.5625 C3.25159002 21.87261819 2.86454311 11.39783283 0 0 Z " fill="#5D6972" transform="translate(480,352)"/>
<path d="M0 0 C1.134375 -0.00515625 2.26875 -0.0103125 3.4375 -0.015625 C4.613125 -0.00015625 5.78875 0.0153125 7 0.03125 C8.7634375 0.00804687 8.7634375 0.00804687 10.5625 -0.015625 C11.696875 -0.01046875 12.83125 -0.0053125 14 0 C15.546875 0.00676758 15.546875 0.00676758 17.125 0.01367188 C20.7299897 0.66266798 22.4069966 1.98677875 25 4.53125 C26.0625 7.46875 26.0625 7.46875 26 10.53125 C24.421875 13.18115234 24.421875 13.18115234 22 15.53125 C18.85546875 16.17822266 18.85546875 16.17822266 15.1875 16.1953125 C14.21139771 16.20248795 14.21139771 16.20248795 13.21557617 16.20980835 C11.84388808 16.21320097 10.47211843 16.20404244 9.10058594 16.18310547 C7.00532146 16.15631803 4.91541115 16.18286127 2.8203125 16.21484375 C1.48436322 16.21153952 0.14841727 16.20513299 -1.1875 16.1953125 C-3.00314453 16.18685303 -3.00314453 16.18685303 -4.85546875 16.17822266 C-8 15.53125 -8 15.53125 -10.421875 13.18115234 C-12 10.53125 -12 10.53125 -12.0625 7.46875 C-9.95107411 1.63127842 -5.91299419 0.02586935 0 0 Z " fill="#080605" transform="translate(249,249.46875)"/>
<path d="M0 0 C5.69418879 0.96348372 9.35852518 3.17613908 13.25 7.5 C17.07734417 12.96763453 17.96859496 17.35963252 17 24 C14.75030618 29.5711302 10.99751833 33.76631167 6 37 C3.26748046 37.66212951 0.82955073 37.85364393 -2 38 C-1.84660156 36.9996875 -1.69320313 35.999375 -1.53515625 34.96875 C-0.68666864 28.18084916 -0.63402659 21.33110391 -0.4375 14.5 C-0.39422263 13.09113527 -0.35060569 11.68228093 -0.30664062 10.2734375 C-0.20109429 6.8490454 -0.09898202 3.42458708 0 0 Z " fill="#78858F" transform="translate(369,188)"/>
<path d="M0 0 C3.5819588 3.1981775 5.79856168 6.78992279 8 11 C8.52327881 11.99422974 8.52327881 11.99422974 9.05712891 13.00854492 C12.04144557 18.8216143 14.28439042 24.68836264 16 31 C16.22429687 31.74636719 16.44859375 32.49273437 16.6796875 33.26171875 C18.96445351 42.22864287 18.16038912 51.82217815 18 61 C14.04 59.68 10.08 58.36 6 57 C5.99589111 56.08001221 5.99178223 55.16002441 5.98754883 54.2121582 C5.84648394 36.13215367 5.14597877 19.46974342 0 2 C0 1.34 0 0.68 0 0 Z " fill="#D29889" transform="translate(336,53)"/>
<path d="M0 0 C0.99 0.495 0.99 0.495 2 1 C-9.88445296 17.86631961 -31.34283807 23.92435239 -51 28 C-56.5262106 28.79791202 -61.86661887 29.14833827 -67.4453125 29.1328125 C-68.2188205 29.13376923 -68.99232849 29.13472595 -69.78927612 29.13571167 C-71.4111133 29.13638722 -73.03295329 29.13457692 -74.65478516 29.13037109 C-77.12538752 29.12499916 -79.59580934 29.13034491 -82.06640625 29.13671875 C-83.65104206 29.13605814 -85.23567777 29.13477734 -86.8203125 29.1328125 C-87.55170441 29.13483673 -88.28309631 29.13686096 -89.03665161 29.13894653 C-93.12825513 29.12037504 -96.98559483 28.79311478 -101 28 C-101 27.67 -101 27.34 -101 27 C-99.79730469 26.97421875 -98.59460938 26.9484375 -97.35546875 26.921875 C-64.80206316 25.95764228 -29.28457564 20.28405301 -2.0390625 1.1875 C-1.36617188 0.795625 -0.69328125 0.40375 0 0 Z " fill="#5D6972" transform="translate(352,320)"/>
<path d="M0 0 C4.9137541 3.30407603 7.07754936 8.60308179 8.54296875 14.15625 C9.38930999 19.42237329 9.22489366 24.685846 9 30 C8.50113281 29.61328125 8.00226563 29.2265625 7.48828125 28.828125 C1.08530168 24.18395311 -5.3905841 21.99938285 -13 20 C-13.10787818 17.22813012 -13.18723327 14.46044463 -13.25 11.6875 C-13.28351563 10.90181641 -13.31703125 10.11613281 -13.3515625 9.30664062 C-13.45009744 3.51771297 -13.45009744 3.51771297 -11.2578125 0.99609375 C-7.4057136 -0.70336164 -4.10790887 -0.96992293 0 0 Z " fill="#CF9586" transform="translate(382,153)"/>
<path d="M0 0 C5.68661881 4.40801259 9.12539948 8.78810673 12.6875 15 C13.60704833 16.5631032 14.52760177 18.1256156 15.44921875 19.6875 C15.87895996 20.42226563 16.30870117 21.15703125 16.75146484 21.9140625 C18.40652791 24.67918937 20.18035338 27.34084428 22 30 C16.1549332 29.48403231 11.68273969 27.75650184 6.4375 25.1875 C5.70853516 24.84396484 4.97957031 24.50042969 4.22851562 24.14648438 C-0.1067097 22.0666688 -4.0666125 19.76517763 -8 17 C-6.85700498 14.35290709 -5.71075628 11.70730948 -4.5625 9.0625 C-4.23701172 8.30775391 -3.91152344 7.55300781 -3.57617188 6.77539062 C-1.11328125 1.11328125 -1.11328125 1.11328125 0 0 Z " fill="#E4A998" transform="translate(177,292)"/>
<path d="M0 0 C1.65 0 3.3 0 5 0 C5.66 1.65 6.32 3.3 7 5 C6.20207031 5.47953125 5.40414062 5.9590625 4.58203125 6.453125 C1.00500313 9.98144926 1.02156588 12.89598248 0.6875 17.75 C0.61466797 18.54277344 0.54183594 19.33554687 0.46679688 20.15234375 C0.29081934 22.09982846 0.14264632 24.04979058 0 26 C-3.92300272 24.17495091 -6.73787272 21.81729174 -10 19 C-8.05657711 15.03132589 -5.95916091 11.14583435 -3.875 7.25 C-3.50246094 6.55261719 -3.12992188 5.85523438 -2.74609375 5.13671875 C-1.83120092 3.42422705 -0.91566431 1.71207932 0 0 Z " fill="#5B6870" transform="translate(148,383)"/>
<path d="M0 0 C8.37426247 4.56375151 14.4607516 12.22881918 18 21 C18 21.99 18 22.98 18 24 C8.58997722 23.03644647 8.58997722 23.03644647 4 22 C4.66 21.67 5.32 21.34 6 21 C3.99805475 11.14084067 3.99805475 11.14084067 0 2 C0 1.34 0 0.68 0 0 Z " fill="#D09687" transform="translate(129,414)"/>
<path d="M0 0 C2.97 0.495 2.97 0.495 6 1 C7.54127106 5.62381319 6.07617899 9.82309041 3.97265625 14.078125 C3.02210143 15.74244163 2.01581653 17.37469355 1 19 C0.67 19 0.34 19 0 19 C0 12.73 0 6.46 0 0 Z " fill="#8E99A4" transform="translate(370,189)"/>
</svg>
